solid CATIA STL
  facet normal -8.457193e-018 -9.749280e-001 -2.225209e-001
    outer loop
      vertex  3.300000e+001 -3.000000e+000 -7.347881e-016
      vertex  4.000000e+000 -3.000000e+000  3.673940e-016
      vertex  3.300000e+001 -2.702907e+000 -1.301651e+000
    endloop
  endfacet
  facet normal  -0.000000e+000 -9.749280e-001 -2.225209e-001
    outer loop
      vertex  3.300000e+001 -2.702907e+000 -1.301651e+000
      vertex  4.000000e+000 -3.000000e+000  3.673940e-016
      vertex  4.000000e+000 -2.702907e+000 -1.301651e+000
    endloop
  endfacet
  facet normal  0.000000e+000 -7.818315e-001 -6.234898e-001
    outer loop
      vertex  3.300000e+001 -2.702907e+000 -1.301651e+000
      vertex  4.000000e+000 -2.702907e+000 -1.301651e+000
      vertex  3.300000e+001 -1.870469e+000 -2.345495e+000
    endloop
  endfacet
  facet normal  -0.000000e+000 -7.818315e-001 -6.234898e-001
    outer loop
      vertex  3.300000e+001 -1.870469e+000 -2.345495e+000
      vertex  4.000000e+000 -2.702907e+000 -1.301651e+000
      vertex  4.000000e+000 -1.870469e+000 -2.345495e+000
    endloop
  endfacet
  facet normal  0.000000e+000 -4.338837e-001 -9.009690e-001
    outer loop
      vertex  3.300000e+001 -1.870469e+000 -2.345495e+000
      vertex  4.000000e+000 -1.870469e+000 -2.345495e+000
      vertex  3.300000e+001 -6.675628e-001 -2.924784e+000
    endloop
  endfacet
  facet normal  -0.000000e+000 -4.338837e-001 -9.009690e-001
    outer loop
      vertex  3.300000e+001 -6.675628e-001 -2.924784e+000
      vertex  4.000000e+000 -1.870469e+000 -2.345495e+000
      vertex  4.000000e+000 -6.675628e-001 -2.924784e+000
    endloop
  endfacet
  facet normal  0.000000e+000  0.000000e+000 -1.000000e+000
    outer loop
      vertex  3.300000e+001 -6.675628e-001 -2.924784e+000
      vertex  4.000000e+000 -6.675628e-001 -2.924784e+000
      vertex  3.300000e+001  6.675628e-001 -2.924784e+000
    endloop
  endfacet
  facet normal  -0.000000e+000  0.000000e+000 -1.000000e+000
    outer loop
      vertex  3.300000e+001  6.675628e-001 -2.924784e+000
      vertex  4.000000e+000 -6.675628e-001 -2.924784e+000
      vertex  4.000000e+000  6.675628e-001 -2.924784e+000
    endloop
  endfacet
  facet normal  0.000000e+000  4.338837e-001 -9.009690e-001
    outer loop
      vertex  3.300000e+001  6.675628e-001 -2.924784e+000
      vertex  4.000000e+000  6.675628e-001 -2.924784e+000
      vertex  3.300000e+001  1.870469e+000 -2.345495e+000
    endloop
  endfacet
  facet normal  0.000000e+000  4.338837e-001 -9.009690e-001
    outer loop
      vertex  3.300000e+001  1.870469e+000 -2.345495e+000
      vertex  4.000000e+000  6.675628e-001 -2.924784e+000
      vertex  4.000000e+000  1.870469e+000 -2.345495e+000
    endloop
  endfacet
  facet normal  0.000000e+000  7.818315e-001 -6.234898e-001
    outer loop
      vertex  3.300000e+001  1.870469e+000 -2.345495e+000
      vertex  4.000000e+000  1.870469e+000 -2.345495e+000
      vertex  3.300000e+001  2.702907e+000 -1.301651e+000
    endloop
  endfacet
  facet normal  0.000000e+000  7.818315e-001 -6.234898e-001
    outer loop
      vertex  3.300000e+001  2.702907e+000 -1.301651e+000
      vertex  4.000000e+000  1.870469e+000 -2.345495e+000
      vertex  4.000000e+000  2.702907e+000 -1.301651e+000
    endloop
  endfacet
  facet normal  0.000000e+000  9.749280e-001 -2.225209e-001
    outer loop
      vertex  3.300000e+001  2.702907e+000 -1.301651e+000
      vertex  4.000000e+000  2.702907e+000 -1.301651e+000
      vertex  3.300000e+001  3.000000e+000  3.673940e-016
    endloop
  endfacet
  facet normal  0.000000e+000  9.749280e-001 -2.225209e-001
    outer loop
      vertex  3.300000e+001  3.000000e+000  3.673940e-016
      vertex  4.000000e+000  2.702907e+000 -1.301651e+000
      vertex  4.000000e+000  3.000000e+000  3.673940e-016
    endloop
  endfacet
  facet normal  -0.000000e+000  9.749280e-001  2.225209e-001
    outer loop
      vertex  3.300000e+001  3.000000e+000  3.673940e-016
      vertex  4.000000e+000  3.000000e+000  3.673940e-016
      vertex  3.300000e+001  2.702907e+000  1.301651e+000
    endloop
  endfacet
  facet normal  0.000000e+000  9.749280e-001  2.225209e-001
    outer loop
      vertex  3.300000e+001  2.702907e+000  1.301651e+000
      vertex  4.000000e+000  3.000000e+000  3.673940e-016
      vertex  4.000000e+000  2.702907e+000  1.301651e+000
    endloop
  endfacet
  facet normal  -0.000000e+000  7.818315e-001  6.234898e-001
    outer loop
      vertex  3.300000e+001  2.702907e+000  1.301651e+000
      vertex  4.000000e+000  2.702907e+000  1.301651e+000
      vertex  3.300000e+001  1.870469e+000  2.345495e+000
    endloop
  endfacet
  facet normal  0.000000e+000  7.818315e-001  6.234898e-001
    outer loop
      vertex  3.300000e+001  1.870469e+000  2.345495e+000
      vertex  4.000000e+000  2.702907e+000  1.301651e+000
      vertex  4.000000e+000  1.870469e+000  2.345495e+000
    endloop
  endfacet
  facet normal  -0.000000e+000  4.338837e-001  9.009690e-001
    outer loop
      vertex  3.300000e+001  1.870469e+000  2.345495e+000
      vertex  4.000000e+000  1.870469e+000  2.345495e+000
      vertex  3.300000e+001  6.675628e-001  2.924784e+000
    endloop
  endfacet
  facet normal  0.000000e+000  4.338837e-001  9.009690e-001
    outer loop
      vertex  3.300000e+001  6.675628e-001  2.924784e+000
      vertex  4.000000e+000  1.870469e+000  2.345495e+000
      vertex  4.000000e+000  6.675628e-001  2.924784e+000
    endloop
  endfacet
  facet normal  -0.000000e+000  0.000000e+000  1.000000e+000
    outer loop
      vertex  3.300000e+001  6.675628e-001  2.924784e+000
      vertex  4.000000e+000  6.675628e-001  2.924784e+000
      vertex  3.300000e+001 -6.675628e-001  2.924784e+000
    endloop
  endfacet
  facet normal  0.000000e+000  0.000000e+000  1.000000e+000
    outer loop
      vertex  3.300000e+001 -6.675628e-001  2.924784e+000
      vertex  4.000000e+000  6.675628e-001  2.924784e+000
      vertex  4.000000e+000 -6.675628e-001  2.924784e+000
    endloop
  endfacet
  facet normal  0.000000e+000 -4.338837e-001  9.009690e-001
    outer loop
      vertex  3.300000e+001 -6.675628e-001  2.924784e+000
      vertex  4.000000e+000 -6.675628e-001  2.924784e+000
      vertex  3.300000e+001 -1.870469e+000  2.345495e+000
    endloop
  endfacet
  facet normal  0.000000e+000 -4.338837e-001  9.009690e-001
    outer loop
      vertex  3.300000e+001 -1.870469e+000  2.345495e+000
      vertex  4.000000e+000 -6.675628e-001  2.924784e+000
      vertex  4.000000e+000 -1.870469e+000  2.345495e+000
    endloop
  endfacet
  facet normal  0.000000e+000 -7.818315e-001  6.234898e-001
    outer loop
      vertex  3.300000e+001 -1.870469e+000  2.345495e+000
      vertex  4.000000e+000 -1.870469e+000  2.345495e+000
      vertex  3.300000e+001 -2.702907e+000  1.301651e+000
    endloop
  endfacet
  facet normal  0.000000e+000 -7.818315e-001  6.234898e-001
    outer loop
      vertex  3.300000e+001 -2.702907e+000  1.301651e+000
      vertex  4.000000e+000 -1.870469e+000  2.345495e+000
      vertex  4.000000e+000 -2.702907e+000  1.301651e+000
    endloop
  endfacet
  facet normal  0.000000e+000 -9.749280e-001  2.225209e-001
    outer loop
      vertex  3.300000e+001 -2.702907e+000  1.301651e+000
      vertex  4.000000e+000 -2.702907e+000  1.301651e+000
      vertex  3.300000e+001 -3.000000e+000 -7.347881e-016
    endloop
  endfacet
  facet normal  8.457193e-018 -9.749280e-001  2.225209e-001
    outer loop
      vertex  3.300000e+001 -3.000000e+000 -7.347881e-016
      vertex  4.000000e+000 -2.702907e+000  1.301651e+000
      vertex  4.000000e+000 -3.000000e+000  3.673940e-016
    endloop
  endfacet
  facet normal  1.000000e+000  0.000000e+000  0.000000e+000
    outer loop
      vertex  3.400000e+001 -5.097068e-014  2.000000e+000
      vertex  3.400000e+001 -1.000000e+000  1.732051e+000
      vertex  3.400000e+001  1.000000e+000  1.732051e+000
    endloop
  endfacet
  facet normal  1.000000e+000  -0.000000e+000  0.000000e+000
    outer loop
      vertex  3.400000e+001  1.000000e+000  1.732051e+000
      vertex  3.400000e+001 -1.000000e+000  1.732051e+000
      vertex  3.400000e+001  1.732051e+000  1.000000e+000
    endloop
  endfacet
  facet normal  1.000000e+000  0.000000e+000  0.000000e+000
    outer loop
      vertex  3.400000e+001  1.732051e+000  1.000000e+000
      vertex  3.400000e+001 -1.000000e+000  1.732051e+000
      vertex  3.400000e+001 -1.732051e+000  1.000000e+000
    endloop
  endfacet
  facet normal  9.999999e-001  -0.000000e+000  0.000000e+000
    outer loop
      vertex  3.400000e+001  1.732051e+000  1.000000e+000
      vertex  3.400000e+001 -1.732051e+000  1.000000e+000
      vertex  3.400000e+001  2.000000e+000 -6.194364e-015
    endloop
  endfacet
  facet normal  1.000000e+000  0.000000e+000  0.000000e+000
    outer loop
      vertex  3.400000e+001  2.000000e+000 -6.194364e-015
      vertex  3.400000e+001 -1.732051e+000  1.000000e+000
      vertex  3.400000e+001 -2.000000e+000 -4.898587e-016
    endloop
  endfacet
  facet normal  1.000000e+000  0.000000e+000  0.000000e+000
    outer loop
      vertex  3.400000e+001  2.000000e+000 -6.194364e-015
      vertex  3.400000e+001 -2.000000e+000 -4.898587e-016
      vertex  3.400000e+001  1.732051e+000 -1.000000e+000
    endloop
  endfacet
  facet normal  9.999999e-001  0.000000e+000  0.000000e+000
    outer loop
      vertex  3.400000e+001  1.732051e+000 -1.000000e+000
      vertex  3.400000e+001 -2.000000e+000 -4.898587e-016
      vertex  3.400000e+001 -1.732051e+000 -1.000000e+000
    endloop
  endfacet
  facet normal  1.000000e+000  -0.000000e+000  0.000000e+000
    outer loop
      vertex  3.400000e+001  1.732051e+000 -1.000000e+000
      vertex  3.400000e+001 -1.732051e+000 -1.000000e+000
      vertex  3.400000e+001  1.000000e+000 -1.732051e+000
    endloop
  endfacet
  facet normal  1.000000e+000  0.000000e+000  0.000000e+000
    outer loop
      vertex  3.400000e+001  1.000000e+000 -1.732051e+000
      vertex  3.400000e+001 -1.732051e+000 -1.000000e+000
      vertex  3.400000e+001 -1.000000e+000 -1.732051e+000
    endloop
  endfacet
  facet normal  1.000000e+000  -0.000000e+000  0.000000e+000
    outer loop
      vertex  3.400000e+001  1.000000e+000 -1.732051e+000
      vertex  3.400000e+001 -1.000000e+000 -1.732051e+000
      vertex  3.400000e+001  5.365810e-014 -2.000000e+000
    endloop
  endfacet
  facet normal  7.126437e-001  6.776221e-001 -1.815683e-001
    outer loop
      vertex  3.400000e+001  2.000000e+000 -6.194364e-015
      vertex  3.400000e+001  1.732051e+000 -1.000000e+000
      vertex  3.300000e+001  2.702907e+000 -1.301651e+000
    endloop
  endfacet
  facet normal  6.980736e-001  6.980736e-001 -1.593307e-001
    outer loop
      vertex  3.400000e+001  2.000000e+000 -6.194364e-015
      vertex  3.300000e+001  2.702907e+000 -1.301651e+000
      vertex  3.300000e+001  3.000000e+000  3.673940e-016
    endloop
  endfacet
  facet normal  6.980736e-001 -6.980736e-001 -1.593307e-001
    outer loop
      vertex  3.400000e+001 -2.000000e+000 -4.898587e-016
      vertex  3.300000e+001 -3.000000e+000 -7.347881e-016
      vertex  3.300000e+001 -2.702907e+000 -1.301651e+000
    endloop
  endfacet
  facet normal  7.126437e-001 -6.776221e-001 -1.815683e-001
    outer loop
      vertex  3.400000e+001 -2.000000e+000 -4.898587e-016
      vertex  3.300000e+001 -2.702907e+000 -1.301651e+000
      vertex  3.400000e+001 -1.732051e+000 -1.000000e+000
    endloop
  endfacet
  facet normal  6.876504e-001  5.676425e-001 -4.526797e-001
    outer loop
      vertex  3.400000e+001  1.732051e+000 -1.000000e+000
      vertex  3.300000e+001  1.870469e+000 -2.345495e+000
      vertex  3.300000e+001  2.702907e+000 -1.301651e+000
    endloop
  endfacet
  facet normal  6.811603e-001  3.176611e-001 -6.596302e-001
    outer loop
      vertex  3.400000e+001  1.000000e+000 -1.732051e+000
      vertex  3.300000e+001  6.675628e-001 -2.924784e+000
      vertex  3.300000e+001  1.870469e+000 -2.345495e+000
    endloop
  endfacet
  facet normal  7.239032e-001  4.878340e-001 -4.878340e-001
    outer loop
      vertex  3.400000e+001  1.000000e+000 -1.732051e+000
      vertex  3.300000e+001  1.870469e+000 -2.345495e+000
      vertex  3.400000e+001  1.732051e+000 -1.000000e+000
    endloop
  endfacet
  facet normal  6.789563e-001  0.000000e+000 -7.341785e-001
    outer loop
      vertex  3.400000e+001  5.365810e-014 -2.000000e+000
      vertex  3.300000e+001 -6.675628e-001 -2.924784e+000
      vertex  3.300000e+001  6.675628e-001 -2.924784e+000
    endloop
  endfacet
  facet normal  7.293400e-001  1.770715e-001 -6.608396e-001
    outer loop
      vertex  3.400000e+001  5.365810e-014 -2.000000e+000
      vertex  3.300000e+001  6.675628e-001 -2.924784e+000
      vertex  3.400000e+001  1.000000e+000 -1.732051e+000
    endloop
  endfacet
  facet normal  6.811603e-001 -3.176611e-001 -6.596302e-001
    outer loop
      vertex  3.400000e+001 -1.000000e+000 -1.732051e+000
      vertex  3.300000e+001 -1.870469e+000 -2.345495e+000
      vertex  3.300000e+001 -6.675628e-001 -2.924784e+000
    endloop
  endfacet
  facet normal  7.293400e-001 -1.770715e-001 -6.608396e-001
    outer loop
      vertex  3.400000e+001 -1.000000e+000 -1.732051e+000
      vertex  3.300000e+001 -6.675628e-001 -2.924784e+000
      vertex  3.400000e+001  5.365810e-014 -2.000000e+000
    endloop
  endfacet
  facet normal  6.876504e-001 -5.676425e-001 -4.526797e-001
    outer loop
      vertex  3.400000e+001 -1.732051e+000 -1.000000e+000
      vertex  3.300000e+001 -2.702907e+000 -1.301651e+000
      vertex  3.300000e+001 -1.870469e+000 -2.345495e+000
    endloop
  endfacet
  facet normal  7.239032e-001 -4.878340e-001 -4.878340e-001
    outer loop
      vertex  3.400000e+001 -1.732051e+000 -1.000000e+000
      vertex  3.300000e+001 -1.870469e+000 -2.345495e+000
      vertex  3.400000e+001 -1.000000e+000 -1.732051e+000
    endloop
  endfacet
  facet normal  7.126437e-001 -6.776221e-001  1.815683e-001
    outer loop
      vertex  3.400000e+001 -2.000000e+000 -4.898587e-016
      vertex  3.400000e+001 -1.732051e+000  1.000000e+000
      vertex  3.300000e+001 -2.702907e+000  1.301651e+000
    endloop
  endfacet
  facet normal  6.980736e-001 -6.980736e-001  1.593307e-001
    outer loop
      vertex  3.400000e+001 -2.000000e+000 -4.898587e-016
      vertex  3.300000e+001 -2.702907e+000  1.301651e+000
      vertex  3.300000e+001 -3.000000e+000 -7.347881e-016
    endloop
  endfacet
  facet normal  6.980736e-001  6.980736e-001  1.593307e-001
    outer loop
      vertex  3.400000e+001  2.000000e+000 -6.194364e-015
      vertex  3.300000e+001  3.000000e+000  3.673940e-016
      vertex  3.300000e+001  2.702907e+000  1.301651e+000
    endloop
  endfacet
  facet normal  7.126437e-001  6.776221e-001  1.815683e-001
    outer loop
      vertex  3.400000e+001  2.000000e+000 -6.194364e-015
      vertex  3.300000e+001  2.702907e+000  1.301651e+000
      vertex  3.400000e+001  1.732051e+000  1.000000e+000
    endloop
  endfacet
  facet normal  6.876504e-001 -5.676425e-001  4.526797e-001
    outer loop
      vertex  3.400000e+001 -1.732051e+000  1.000000e+000
      vertex  3.300000e+001 -1.870469e+000  2.345495e+000
      vertex  3.300000e+001 -2.702907e+000  1.301651e+000
    endloop
  endfacet
  facet normal  6.811603e-001 -3.176611e-001  6.596302e-001
    outer loop
      vertex  3.400000e+001 -1.000000e+000  1.732051e+000
      vertex  3.300000e+001 -6.675628e-001  2.924784e+000
      vertex  3.300000e+001 -1.870469e+000  2.345495e+000
    endloop
  endfacet
  facet normal  7.239032e-001 -4.878340e-001  4.878340e-001
    outer loop
      vertex  3.400000e+001 -1.000000e+000  1.732051e+000
      vertex  3.300000e+001 -1.870469e+000  2.345495e+000
      vertex  3.400000e+001 -1.732051e+000  1.000000e+000
    endloop
  endfacet
  facet normal  6.789563e-001  0.000000e+000  7.341785e-001
    outer loop
      vertex  3.400000e+001 -5.097068e-014  2.000000e+000
      vertex  3.300000e+001  6.675628e-001  2.924784e+000
      vertex  3.300000e+001 -6.675628e-001  2.924784e+000
    endloop
  endfacet
  facet normal  7.293400e-001 -1.770715e-001  6.608396e-001
    outer loop
      vertex  3.400000e+001 -5.097068e-014  2.000000e+000
      vertex  3.300000e+001 -6.675628e-001  2.924784e+000
      vertex  3.400000e+001 -1.000000e+000  1.732051e+000
    endloop
  endfacet
  facet normal  6.811603e-001  3.176611e-001  6.596302e-001
    outer loop
      vertex  3.400000e+001  1.000000e+000  1.732051e+000
      vertex  3.300000e+001  1.870469e+000  2.345495e+000
      vertex  3.300000e+001  6.675628e-001  2.924784e+000
    endloop
  endfacet
  facet normal  7.293400e-001  1.770715e-001  6.608396e-001
    outer loop
      vertex  3.400000e+001  1.000000e+000  1.732051e+000
      vertex  3.300000e+001  6.675628e-001  2.924784e+000
      vertex  3.400000e+001 -5.097068e-014  2.000000e+000
    endloop
  endfacet
  facet normal  6.876504e-001  5.676425e-001  4.526797e-001
    outer loop
      vertex  3.400000e+001  1.732051e+000  1.000000e+000
      vertex  3.300000e+001  2.702907e+000  1.301651e+000
      vertex  3.300000e+001  1.870469e+000  2.345495e+000
    endloop
  endfacet
  facet normal  7.239032e-001  4.878340e-001  4.878340e-001
    outer loop
      vertex  3.400000e+001  1.732051e+000  1.000000e+000
      vertex  3.300000e+001  1.870469e+000  2.345495e+000
      vertex  3.400000e+001  1.000000e+000  1.732051e+000
    endloop
  endfacet
  facet normal -1.000000e+000  0.000000e+000  0.000000e+000
    outer loop
      vertex  0.000000e+000  1.710877e+000 -4.698181e+000
      vertex  0.000000e+000 -6.178508e-013 -5.000000e+000
      vertex  0.000000e+000 -2.492940e-003 -5.000000e+000
    endloop
  endfacet
  facet normal -1.000000e+000  0.000000e+000  -0.000000e+000
    outer loop
      vertex  0.000000e+000 -1.238228e+000  4.844254e+000
      vertex  0.000000e+000  6.235741e-013  5.000000e+000
      vertex  0.000000e+000  2.499735e-003  5.000000e+000
    endloop
  endfacet
  facet normal -1.000000e+000 -1.569596e-013  1.247872e-012
    outer loop
      vertex  0.000000e+000  6.235741e-013  5.000000e+000
      vertex  0.000000e+000 -1.238228e+000  4.844254e+000
      vertex  3.903128e-016 -2.486682e-003  5.000000e+000
    endloop
  endfacet
  facet normal -1.000000e+000 -4.548306e-017  2.625512e-017
    outer loop
      vertex  0.000000e+000  4.328879e+000 -2.502161e+000
      vertex  3.937822e-016 -4.328888e+000 -2.502146e+000
      vertex  0.000000e+000  4.330127e+000 -2.500000e+000
    endloop
  endfacet
  facet normal -1.000000e+000  1.566965e-013 -8.882415e-013
    outer loop
      vertex  0.000000e+000 -6.178508e-013 -5.000000e+000
      vertex  0.000000e+000  1.710877e+000 -4.698181e+000
      vertex  3.885781e-016  2.479962e-003 -5.000000e+000
    endloop
  endfacet
  facet normal -1.000000e+000  4.485626e-017  2.589425e-017
    outer loop
      vertex  0.000000e+000 -4.330127e+000 -2.500000e+000
      vertex  0.000000e+000 -4.331372e+000 -2.497843e+000
      vertex  3.885781e-016  4.331368e+000 -2.497850e+000
    endloop
  endfacet
  facet normal -9.999999e-001  0.000000e+000  1.807290e-013
    outer loop
      vertex  0.000000e+000 -4.330127e+000 -2.500000e+000
      vertex  3.885781e-016  4.331368e+000 -2.497850e+000
      vertex  0.000000e+000  4.330127e+000 -2.500000e+000
    endloop
  endfacet
  facet normal -1.000000e+000  -0.000000e+000 -1.835362e-013
    outer loop
      vertex  0.000000e+000 -4.330127e+000 -2.500000e+000
      vertex  0.000000e+000  4.330127e+000 -2.500000e+000
      vertex  3.937822e-016 -4.328888e+000 -2.502146e+000
    endloop
  endfacet
  facet normal -1.000000e+000  4.488200e-017 -2.592126e-017
    outer loop
      vertex  0.000000e+000 -4.330127e+000  2.500000e+000
      vertex  0.000000e+000 -4.328879e+000  2.502162e+000
      vertex  3.885781e-016  4.328886e+000  2.502150e+000
    endloop
  endfacet
  facet normal -1.000000e+000  0.000000e+000  1.807692e-013
    outer loop
      vertex  0.000000e+000 -4.330127e+000  2.500000e+000
      vertex  3.885781e-016  4.328886e+000  2.502150e+000
      vertex  0.000000e+000  4.330127e+000  2.500000e+000
    endloop
  endfacet
  facet normal -1.000000e+000  -0.000000e+000 -1.807090e-013
    outer loop
      vertex  0.000000e+000 -4.330127e+000  2.500000e+000
      vertex  0.000000e+000  4.330127e+000  2.500000e+000
      vertex  3.885781e-016 -4.331368e+000  2.497850e+000
    endloop
  endfacet
  facet normal -1.000000e+000  0.000000e+000  0.000000e+000
    outer loop
      vertex  0.000000e+000  3.213305e+000  3.830753e+000
      vertex  0.000000e+000 -2.397128e+000  4.387913e+000
      vertex  0.000000e+000  1.710887e+000  4.698177e+000
    endloop
  endfacet
  facet normal -1.000000e+000  -0.000000e+000  0.000000e+000
    outer loop
      vertex  0.000000e+000  1.710887e+000  4.698177e+000
      vertex  0.000000e+000 -2.397128e+000  4.387913e+000
      vertex  0.000000e+000 -1.238228e+000  4.844254e+000
    endloop
  endfacet
  facet normal -1.000000e+000  0.000000e+000  0.000000e+000
    outer loop
      vertex  0.000000e+000  1.710887e+000  4.698177e+000
      vertex  0.000000e+000 -1.238228e+000  4.844254e+000
      vertex  0.000000e+000  2.499735e-003  5.000000e+000
    endloop
  endfacet
  facet normal -1.000000e+000  4.488168e-017 -2.547855e-016
    outer loop
      vertex  3.885781e-016  4.328886e+000  2.502150e+000
      vertex  0.000000e+000 -4.328879e+000  2.502162e+000
      vertex  0.000000e+000  3.213305e+000  3.830753e+000
    endloop
  endfacet
  facet normal -1.000000e+000  0.000000e+000  0.000000e+000
    outer loop
      vertex  0.000000e+000  3.213305e+000  3.830753e+000
      vertex  0.000000e+000 -4.328879e+000  2.502162e+000
      vertex  0.000000e+000 -3.492679e+000  3.577876e+000
    endloop
  endfacet
  facet normal -1.000000e+000  0.000000e+000  0.000000e+000
    outer loop
      vertex  0.000000e+000  3.213305e+000  3.830753e+000
      vertex  0.000000e+000 -3.492679e+000  3.577876e+000
      vertex  0.000000e+000 -2.397128e+000  4.387913e+000
    endloop
  endfacet
  facet normal -1.000000e+000  4.485605e-017 -2.546388e-016
    outer loop
      vertex  3.885781e-016  4.331368e+000 -2.497850e+000
      vertex  0.000000e+000 -4.331372e+000 -2.497843e+000
      vertex  0.000000e+000  4.924182e+000 -8.674256e-001
    endloop
  endfacet
  facet normal -1.000000e+000  -0.000000e+000  0.000000e+000
    outer loop
      vertex  0.000000e+000  4.924182e+000 -8.674256e-001
      vertex  0.000000e+000 -4.331372e+000 -2.497843e+000
      vertex  0.000000e+000 -4.924183e+000 -8.674232e-001
    endloop
  endfacet
  facet normal -1.000000e+000  0.000000e+000  0.000000e+000
    outer loop
      vertex  0.000000e+000  4.924182e+000 -8.674256e-001
      vertex  0.000000e+000 -4.924183e+000 -8.674232e-001
      vertex  0.000000e+000  4.924183e+000  8.674199e-001
    endloop
  endfacet
  facet normal -1.000000e+000  -0.000000e+000  0.000000e+000
    outer loop
      vertex  0.000000e+000  4.924183e+000  8.674199e-001
      vertex  0.000000e+000 -4.924183e+000 -8.674232e-001
      vertex  0.000000e+000 -4.924183e+000  8.674238e-001
    endloop
  endfacet
  facet normal -1.000000e+000  0.000000e+000  0.000000e+000
    outer loop
      vertex  0.000000e+000  4.924183e+000  8.674199e-001
      vertex  0.000000e+000 -4.924183e+000  8.674238e-001
      vertex  0.000000e+000  4.331375e+000  2.497839e+000
    endloop
  endfacet
  facet normal -1.000000e+000 -4.485594e-017  2.546386e-016
    outer loop
      vertex  0.000000e+000  4.331375e+000  2.497839e+000
      vertex  0.000000e+000 -4.924183e+000  8.674238e-001
      vertex  3.885781e-016 -4.331368e+000  2.497850e+000
    endloop
  endfacet
  facet normal -1.000000e+000 -4.485627e-017 -2.589518e-017
    outer loop
      vertex  0.000000e+000  4.331375e+000  2.497839e+000
      vertex  3.885781e-016 -4.331368e+000  2.497850e+000
      vertex  0.000000e+000  4.330127e+000  2.500000e+000
    endloop
  endfacet
  facet normal -1.000000e+000 -4.548264e-017  2.581972e-016
    outer loop
      vertex  3.937822e-016 -4.328888e+000 -2.502146e+000
      vertex  0.000000e+000  4.328879e+000 -2.502161e+000
      vertex  0.000000e+000 -3.213306e+000 -3.830753e+000
    endloop
  endfacet
  facet normal -1.000000e+000  0.000000e+000  0.000000e+000
    outer loop
      vertex  0.000000e+000 -3.213306e+000 -3.830753e+000
      vertex  0.000000e+000  4.328879e+000 -2.502161e+000
      vertex  0.000000e+000  3.213299e+000 -3.830759e+000
    endloop
  endfacet
  facet normal -1.000000e+000  -0.000000e+000  0.000000e+000
    outer loop
      vertex  0.000000e+000 -3.213306e+000 -3.830753e+000
      vertex  0.000000e+000  3.213299e+000 -3.830759e+000
      vertex  0.000000e+000 -1.710884e+000 -4.698178e+000
    endloop
  endfacet
  facet normal -1.000000e+000  0.000000e+000  0.000000e+000
    outer loop
      vertex  0.000000e+000 -1.710884e+000 -4.698178e+000
      vertex  0.000000e+000  3.213299e+000 -3.830759e+000
      vertex  0.000000e+000  1.710877e+000 -4.698181e+000
    endloop
  endfacet
  facet normal -1.000000e+000  -0.000000e+000  0.000000e+000
    outer loop
      vertex  0.000000e+000 -1.710884e+000 -4.698178e+000
      vertex  0.000000e+000  1.710877e+000 -4.698181e+000
      vertex  0.000000e+000 -2.492940e-003 -5.000000e+000
    endloop
  endfacet
  facet normal  1.000000e+000  0.000000e+000  -0.000000e+000
    outer loop
      vertex  4.000000e+000 -5.773503e+000 -1.332268e-015
      vertex  4.000000e+000 -3.000000e+000  3.673940e-016
      vertex  4.000000e+000 -2.702907e+000  1.301651e+000
    endloop
  endfacet
  facet normal  1.000000e+000  0.000000e+000  -0.000000e+000
    outer loop
      vertex  4.000000e+000 -5.773503e+000 -1.332268e-015
      vertex  4.000000e+000 -2.702907e+000  1.301651e+000
      vertex  4.000000e+000 -1.870469e+000  2.345495e+000
    endloop
  endfacet
  facet normal  1.000000e+000  0.000000e+000  0.000000e+000
    outer loop
      vertex  4.000000e+000  3.000000e+000  3.673940e-016
      vertex  4.000000e+000  5.773503e+000  0.000000e+000
      vertex  4.000000e+000  2.702907e+000  1.301651e+000
    endloop
  endfacet
  facet normal  1.000000e+000  0.000000e+000  0.000000e+000
    outer loop
      vertex  4.000000e+000  2.886751e+000 -5.000000e+000
      vertex  4.000000e+000  5.773503e+000  0.000000e+000
      vertex  4.000000e+000  3.000000e+000  3.673940e-016
    endloop
  endfacet
  facet normal  1.000000e+000  0.000000e+000  0.000000e+000
    outer loop
      vertex  4.000000e+000  2.886751e+000 -5.000000e+000
      vertex  4.000000e+000  3.000000e+000  3.673940e-016
      vertex  4.000000e+000  2.702907e+000 -1.301651e+000
    endloop
  endfacet
  facet normal  1.000000e+000  0.000000e+000  0.000000e+000
    outer loop
      vertex  4.000000e+000  2.886751e+000 -5.000000e+000
      vertex  4.000000e+000  2.702907e+000 -1.301651e+000
      vertex  4.000000e+000  1.870469e+000 -2.345495e+000
    endloop
  endfacet
  facet normal  9.999999e-001  0.000000e+000  0.000000e+000
    outer loop
      vertex  4.000000e+000  2.886751e+000 -5.000000e+000
      vertex  4.000000e+000  1.870469e+000 -2.345495e+000
      vertex  4.000000e+000  6.675628e-001 -2.924784e+000
    endloop
  endfacet
  facet normal  1.000000e+000  0.000000e+000  0.000000e+000
    outer loop
      vertex  4.000000e+000  2.886751e+000 -5.000000e+000
      vertex  4.000000e+000  6.675628e-001 -2.924784e+000
      vertex  4.000000e+000 -6.675628e-001 -2.924784e+000
    endloop
  endfacet
  facet normal  1.000000e+000  0.000000e+000  0.000000e+000
    outer loop
      vertex  4.000000e+000  2.886751e+000 -5.000000e+000
      vertex  4.000000e+000 -6.675628e-001 -2.924784e+000
      vertex  4.000000e+000 -2.886751e+000 -5.000000e+000
    endloop
  endfacet
  facet normal  1.000000e+000  0.000000e+000  0.000000e+000
    outer loop
      vertex  4.000000e+000 -2.886751e+000 -5.000000e+000
      vertex  4.000000e+000 -6.675628e-001 -2.924784e+000
      vertex  4.000000e+000 -1.870469e+000 -2.345495e+000
    endloop
  endfacet
  facet normal  1.000000e+000  0.000000e+000  0.000000e+000
    outer loop
      vertex  4.000000e+000 -2.886751e+000 -5.000000e+000
      vertex  4.000000e+000 -1.870469e+000 -2.345495e+000
      vertex  4.000000e+000 -2.702907e+000 -1.301651e+000
    endloop
  endfacet
  facet normal  1.000000e+000  0.000000e+000  0.000000e+000
    outer loop
      vertex  4.000000e+000 -2.886751e+000 -5.000000e+000
      vertex  4.000000e+000 -2.702907e+000 -1.301651e+000
      vertex  4.000000e+000 -3.000000e+000  3.673940e-016
    endloop
  endfacet
  facet normal  1.000000e+000  0.000000e+000  0.000000e+000
    outer loop
      vertex  4.000000e+000 -2.886751e+000 -5.000000e+000
      vertex  4.000000e+000 -3.000000e+000  3.673940e-016
      vertex  4.000000e+000 -5.773503e+000 -1.332268e-015
    endloop
  endfacet
  facet normal  1.000000e+000  0.000000e+000  0.000000e+000
    outer loop
      vertex  4.000000e+000 -2.886751e+000  5.000000e+000
      vertex  4.000000e+000 -5.773503e+000 -1.332268e-015
      vertex  4.000000e+000 -1.870469e+000  2.345495e+000
    endloop
  endfacet
  facet normal  9.999999e-001  0.000000e+000  -0.000000e+000
    outer loop
      vertex  4.000000e+000 -2.886751e+000  5.000000e+000
      vertex  4.000000e+000 -1.870469e+000  2.345495e+000
      vertex  4.000000e+000 -6.675628e-001  2.924784e+000
    endloop
  endfacet
  facet normal  1.000000e+000  0.000000e+000  -0.000000e+000
    outer loop
      vertex  4.000000e+000 -2.886751e+000  5.000000e+000
      vertex  4.000000e+000 -6.675628e-001  2.924784e+000
      vertex  4.000000e+000  6.675628e-001  2.924784e+000
    endloop
  endfacet
  facet normal  1.000000e+000  0.000000e+000  -0.000000e+000
    outer loop
      vertex  4.000000e+000 -2.886751e+000  5.000000e+000
      vertex  4.000000e+000  6.675628e-001  2.924784e+000
      vertex  4.000000e+000  2.886751e+000  5.000000e+000
    endloop
  endfacet
  facet normal  1.000000e+000  0.000000e+000  0.000000e+000
    outer loop
      vertex  4.000000e+000  2.702907e+000  1.301651e+000
      vertex  4.000000e+000  5.773503e+000  0.000000e+000
      vertex  4.000000e+000  1.870469e+000  2.345495e+000
    endloop
  endfacet
  facet normal  9.999999e-001  -0.000000e+000  0.000000e+000
    outer loop
      vertex  4.000000e+000  1.870469e+000  2.345495e+000
      vertex  4.000000e+000  5.773503e+000  0.000000e+000
      vertex  4.000000e+000  2.886751e+000  5.000000e+000
    endloop
  endfacet
  facet normal  9.999999e-001  0.000000e+000  0.000000e+000
    outer loop
      vertex  4.000000e+000  1.870469e+000  2.345495e+000
      vertex  4.000000e+000  2.886751e+000  5.000000e+000
      vertex  4.000000e+000  6.675628e-001  2.924784e+000
    endloop
  endfacet
  facet normal -9.734114e-001  3.985115e-002 -2.255707e-001
    outer loop
      vertex  3.885781e-016  2.479962e-003 -5.000000e+000
      vertex  0.000000e+000  1.710877e+000 -4.698181e+000
      vertex  2.897243e-002  7.101658e-001 -5.000000e+000
    endloop
  endfacet
  facet normal -8.066493e-001  1.491354e-001 -5.719052e-001
    outer loop
      vertex  4.026843e-001  2.731513e+000 -5.000000e+000
      vertex  2.897243e-002  7.101658e-001 -5.000000e+000
      vertex  0.000000e+000  1.710877e+000 -4.698181e+000
    endloop
  endfacet
  facet normal -8.969267e-001  3.386343e-001 -2.843403e-001
    outer loop
      vertex  0.000000e+000  4.328879e+000 -2.502161e+000
      vertex  1.298535e-001  3.571887e+000 -3.813311e+000
      vertex  0.000000e+000  3.213299e+000 -3.830759e+000
    endloop
  endfacet
  facet normal -9.043164e-001  2.557183e-001 -3.417895e-001
    outer loop
      vertex  4.026843e-001  2.731513e+000 -5.000000e+000
      vertex  0.000000e+000  1.710877e+000 -4.698181e+000
      vertex  4.465820e-001  2.886751e+000 -5.000000e+000
    endloop
  endfacet
  facet normal -8.851021e-001  2.326981e-001 -4.030457e-001
    outer loop
      vertex  4.465820e-001  2.886751e+000 -5.000000e+000
      vertex  0.000000e+000  1.710877e+000 -4.698181e+000
      vertex  0.000000e+000  3.213299e+000 -3.830759e+000
    endloop
  endfacet
  facet normal -8.485563e-001  3.275031e-001 -4.155645e-001
    outer loop
      vertex  4.465820e-001  2.886751e+000 -5.000000e+000
      vertex  0.000000e+000  3.213299e+000 -3.830759e+000
      vertex  1.298535e-001  3.571887e+000 -3.813311e+000
    endloop
  endfacet
  facet normal -9.734113e-001  2.152760e-001 -7.827324e-002
    outer loop
      vertex  3.885781e-016  4.331368e+000 -2.497850e+000
      vertex  0.000000e+000  4.924182e+000 -8.674256e-001
      vertex  2.897243e-002  4.685210e+000 -1.884978e+000
    endloop
  endfacet
  facet normal -8.969266e-001  4.155633e-001  1.510958e-001
    outer loop
      vertex  0.000000e+000  4.331375e+000  2.497839e+000
      vertex  1.298535e-001  5.088367e+000  1.186689e+000
      vertex  0.000000e+000  4.924183e+000  8.674199e-001
    endloop
  endfacet
  facet normal -7.973669e-001  5.820631e-001 -1.594009e-001
    outer loop
      vertex  4.465820e-001  5.773503e+000  1.776357e-015
      vertex  2.897243e-002  4.685210e+000 -1.884978e+000
      vertex  0.000000e+000  4.924182e+000 -8.674256e-001
    endloop
  endfacet
  facet normal -8.851022e-001  4.653967e-001 -2.558366e-007
    outer loop
      vertex  4.465820e-001  5.773503e+000  1.776357e-015
      vertex  0.000000e+000  4.924182e+000 -8.674256e-001
      vertex  0.000000e+000  4.924183e+000  8.674199e-001
    endloop
  endfacet
  facet normal -8.485564e-001  5.236408e-001  7.584369e-002
    outer loop
      vertex  4.465820e-001  5.773503e+000  1.776357e-015
      vertex  0.000000e+000  4.924183e+000  8.674199e-001
      vertex  1.298535e-001  5.088367e+000  1.186689e+000
    endloop
  endfacet
  facet normal -9.734114e-001 -1.754241e-001 -1.472972e-001
    outer loop
      vertex  3.937822e-016 -4.328888e+000 -2.502146e+000
      vertex  0.000000e+000 -3.213306e+000 -3.830753e+000
      vertex  2.897243e-002 -3.975044e+000 -3.115022e+000
    endloop
  endfacet
  facet normal -8.969266e-001 -7.692866e-002 -4.354360e-001
    outer loop
      vertex  0.000000e+000 -2.492940e-003 -5.000000e+000
      vertex  1.298535e-001 -1.516481e+000 -5.000000e+000
      vertex  0.000000e+000 -1.710884e+000 -4.698178e+000
    endloop
  endfacet
  facet normal -7.973665e-001 -4.290771e-001 -4.243812e-001
    outer loop
      vertex  4.465820e-001 -2.886751e+000 -5.000000e+000
      vertex  2.897243e-002 -3.975044e+000 -3.115022e+000
      vertex  0.000000e+000 -3.213306e+000 -3.830753e+000
    endloop
  endfacet
  facet normal -8.851021e-001 -2.326987e-001 -4.030451e-001
    outer loop
      vertex  4.465820e-001 -2.886751e+000 -5.000000e+000
      vertex  0.000000e+000 -3.213306e+000 -3.830753e+000
      vertex  0.000000e+000 -1.710884e+000 -4.698178e+000
    endloop
  endfacet
  facet normal -8.485564e-001 -1.961379e-001 -4.914081e-001
    outer loop
      vertex  4.465820e-001 -2.886751e+000 -5.000000e+000
      vertex  0.000000e+000 -1.710884e+000 -4.698178e+000
      vertex  1.298535e-001 -1.516481e+000 -5.000000e+000
    endloop
  endfacet
  facet normal -9.734113e-001 -2.152759e-001  7.827320e-002
    outer loop
      vertex  3.885781e-016 -4.331368e+000  2.497850e+000
      vertex  0.000000e+000 -4.924183e+000  8.674238e-001
      vertex  2.897243e-002 -4.685210e+000  1.884978e+000
    endloop
  endfacet
  facet normal -8.969263e-001 -4.155636e-001 -1.510964e-001
    outer loop
      vertex  0.000000e+000 -4.331372e+000 -2.497843e+000
      vertex  1.298535e-001 -5.088367e+000 -1.186689e+000
      vertex  0.000000e+000 -4.924183e+000 -8.674232e-001
    endloop
  endfacet
  facet normal -7.973669e-001 -5.820631e-001  1.594009e-001
    outer loop
      vertex  4.465820e-001 -5.773503e+000 -2.664535e-015
      vertex  2.897243e-002 -4.685210e+000  1.884978e+000
      vertex  0.000000e+000 -4.924183e+000  8.674238e-001
    endloop
  endfacet
  facet normal -8.851022e-001 -4.653967e-001  -0.000000e+000
    outer loop
      vertex  4.465820e-001 -5.773503e+000 -2.664535e-015
      vertex  0.000000e+000 -4.924183e+000  8.674238e-001
      vertex  0.000000e+000 -4.924183e+000 -8.674232e-001
    endloop
  endfacet
  facet normal -8.485564e-001 -5.236408e-001 -7.584370e-002
    outer loop
      vertex  4.465820e-001 -5.773503e+000 -2.664535e-015
      vertex  0.000000e+000 -4.924183e+000 -8.674232e-001
      vertex  1.298535e-001 -5.088367e+000 -1.186689e+000
    endloop
  endfacet
  facet normal -8.471506e-001 -4.195127e-001  3.261057e-001
    outer loop
      vertex  0.000000e+000 -4.328879e+000  2.502162e+000
      vertex  1.298535e-001 -3.571887e+000  3.813311e+000
      vertex  0.000000e+000 -3.492679e+000  3.577876e+000
    endloop
  endfacet
  facet normal -8.891081e-001 -2.514178e-001  3.824600e-001
    outer loop
      vertex  4.465820e-001 -2.886751e+000  5.000000e+000
      vertex  4.026843e-001 -2.731513e+000  5.000000e+000
      vertex  1.298535e-001 -3.571887e+000  3.813311e+000
    endloop
  endfacet
  facet normal -8.642837e-001 -2.948610e-001  4.075177e-001
    outer loop
      vertex  1.298535e-001 -3.571887e+000  3.813311e+000
      vertex  4.026843e-001 -2.731513e+000  5.000000e+000
      vertex  0.000000e+000 -2.397128e+000  4.387913e+000
    endloop
  endfacet
  facet normal -8.764758e-001 -2.862316e-001  3.871198e-001
    outer loop
      vertex  1.298535e-001 -3.571887e+000  3.813311e+000
      vertex  0.000000e+000 -2.397128e+000  4.387913e+000
      vertex  0.000000e+000 -3.492679e+000  3.577876e+000
    endloop
  endfacet
  facet normal -7.681085e-001 -1.420099e-001  6.243737e-001
    outer loop
      vertex  4.026843e-001 -2.731513e+000  5.000000e+000
      vertex  2.897243e-002 -7.101658e-001  5.000000e+000
      vertex  0.000000e+000 -1.238228e+000  4.844254e+000
    endloop
  endfacet
  facet normal -8.643246e-001 -1.842694e-001  4.679611e-001
    outer loop
      vertex  4.026843e-001 -2.731513e+000  5.000000e+000
      vertex  0.000000e+000 -1.238228e+000  4.844254e+000
      vertex  0.000000e+000 -2.397128e+000  4.387913e+000
    endloop
  endfacet
  facet normal -9.503610e-001 -3.890784e-002  3.087070e-001
    outer loop
      vertex  3.903128e-016 -2.486682e-003  5.000000e+000
      vertex  0.000000e+000 -1.238228e+000  4.844254e+000
      vertex  2.897243e-002 -7.101658e-001  5.000000e+000
    endloop
  endfacet
  facet normal -9.734113e-001  1.754246e-001  1.472977e-001
    outer loop
      vertex  3.885781e-016  4.328886e+000  2.502150e+000
      vertex  0.000000e+000  3.213305e+000  3.830753e+000
      vertex  2.897243e-002  3.975044e+000  3.115022e+000
    endloop
  endfacet
  facet normal -8.969269e-001  7.692903e-002  4.354357e-001
    outer loop
      vertex  0.000000e+000  2.499735e-003  5.000000e+000
      vertex  1.298535e-001  1.516481e+000  5.000000e+000
      vertex  0.000000e+000  1.710887e+000  4.698177e+000
    endloop
  endfacet
  facet normal -7.973667e-001  4.290769e-001  4.243811e-001
    outer loop
      vertex  4.465820e-001  2.886751e+000  5.000000e+000
      vertex  2.897243e-002  3.975044e+000  3.115022e+000
      vertex  0.000000e+000  3.213305e+000  3.830753e+000
    endloop
  endfacet
  facet normal -8.851021e-001  2.326989e-001  4.030452e-001
    outer loop
      vertex  4.465820e-001  2.886751e+000  5.000000e+000
      vertex  0.000000e+000  3.213305e+000  3.830753e+000
      vertex  0.000000e+000  1.710887e+000  4.698177e+000
    endloop
  endfacet
  facet normal -8.485563e-001  1.961379e-001  4.914083e-001
    outer loop
      vertex  4.465820e-001  2.886751e+000  5.000000e+000
      vertex  0.000000e+000  1.710887e+000  4.698177e+000
      vertex  1.298535e-001  1.516481e+000  5.000000e+000
    endloop
  endfacet
  facet normal  -0.000000e+000  -0.000000e+000  1.000000e+000
    outer loop
      vertex  3.903128e-016 -2.486682e-003  5.000000e+000
      vertex  2.897243e-002 -7.101658e-001  5.000000e+000
      vertex  4.026843e-001 -2.731513e+000  5.000000e+000
    endloop
  endfacet
  facet normal  -0.000000e+000  -0.000000e+000  1.000000e+000
    outer loop
      vertex  3.903128e-016 -2.486682e-003  5.000000e+000
      vertex  4.026843e-001 -2.731513e+000  5.000000e+000
      vertex  4.465820e-001 -2.886751e+000  5.000000e+000
    endloop
  endfacet
  facet normal  0.000000e+000  -0.000000e+000  1.000000e+000
    outer loop
      vertex  3.903128e-016 -2.486682e-003  5.000000e+000
      vertex  4.465820e-001 -2.886751e+000  5.000000e+000
      vertex  4.000000e+000 -2.886751e+000  5.000000e+000
    endloop
  endfacet
  facet normal  0.000000e+000  0.000000e+000  1.000000e+000
    outer loop
      vertex  4.000000e+000 -2.886751e+000  5.000000e+000
      vertex  4.000000e+000  2.886751e+000  5.000000e+000
      vertex  0.000000e+000  2.499735e-003  5.000000e+000
    endloop
  endfacet
  facet normal  0.000000e+000  0.000000e+000  1.000000e+000
    outer loop
      vertex  4.000000e+000 -2.886751e+000  5.000000e+000
      vertex  0.000000e+000  2.499735e-003  5.000000e+000
      vertex  0.000000e+000  6.235741e-013  5.000000e+000
    endloop
  endfacet
  facet normal  0.000000e+000  0.000000e+000  1.000000e+000
    outer loop
      vertex  4.000000e+000 -2.886751e+000  5.000000e+000
      vertex  0.000000e+000  6.235741e-013  5.000000e+000
      vertex  3.903128e-016 -2.486682e-003  5.000000e+000
    endloop
  endfacet
  facet normal  -0.000000e+000  0.000000e+000  1.000000e+000
    outer loop
      vertex  4.000000e+000  2.886751e+000  5.000000e+000
      vertex  4.465820e-001  2.886751e+000  5.000000e+000
      vertex  0.000000e+000  2.499735e-003  5.000000e+000
    endloop
  endfacet
  facet normal  0.000000e+000  0.000000e+000  9.999999e-001
    outer loop
      vertex  0.000000e+000  2.499735e-003  5.000000e+000
      vertex  4.465820e-001  2.886751e+000  5.000000e+000
      vertex  1.298535e-001  1.516481e+000  5.000000e+000
    endloop
  endfacet
  facet normal -8.259062e-008 -8.660254e-001  5.000000e-001
    outer loop
      vertex  4.000000e+000 -5.773503e+000 -1.332268e-015
      vertex  4.000000e+000 -2.886751e+000  5.000000e+000
      vertex  0.000000e+000 -4.328879e+000  2.502162e+000
    endloop
  endfacet
  facet normal  1.040282e-004 -8.659534e-001  5.001249e-001
    outer loop
      vertex  4.000000e+000 -5.773503e+000 -1.332268e-015
      vertex  0.000000e+000 -4.328879e+000  2.502162e+000
      vertex  0.000000e+000 -4.330127e+000  2.500000e+000
    endloop
  endfacet
  facet normal -6.733178e-005 -8.660720e-001  4.999191e-001
    outer loop
      vertex  4.000000e+000 -5.773503e+000 -1.332268e-015
      vertex  0.000000e+000 -4.330127e+000  2.500000e+000
      vertex  3.885781e-016 -4.331368e+000  2.497850e+000
    endloop
  endfacet
  facet normal -1.301806e-007 -8.660254e-001  4.999999e-001
    outer loop
      vertex  4.000000e+000 -5.773503e+000 -1.332268e-015
      vertex  3.885781e-016 -4.331368e+000  2.497850e+000
      vertex  2.897243e-002 -4.685210e+000  1.884978e+000
    endloop
  endfacet
  facet normal  0.000000e+000 -8.660253e-001  5.000001e-001
    outer loop
      vertex  4.000000e+000 -5.773503e+000 -1.332268e-015
      vertex  2.897243e-002 -4.685210e+000  1.884978e+000
      vertex  4.465820e-001 -5.773503e+000 -2.664535e-015
    endloop
  endfacet
  facet normal  0.000000e+000 -8.660255e-001  5.000000e-001
    outer loop
      vertex  4.000000e+000 -2.886751e+000  5.000000e+000
      vertex  4.465820e-001 -2.886751e+000  5.000000e+000
      vertex  0.000000e+000 -4.328879e+000  2.502162e+000
    endloop
  endfacet
  facet normal  7.905446e-007 -8.660256e-001  4.999998e-001
    outer loop
      vertex  0.000000e+000 -4.328879e+000  2.502162e+000
      vertex  4.465820e-001 -2.886751e+000  5.000000e+000
      vertex  1.298535e-001 -3.571887e+000  3.813311e+000
    endloop
  endfacet
  facet normal -2.064765e-008 -8.660254e-001 -5.000000e-001
    outer loop
      vertex  4.000000e+000 -2.886751e+000 -5.000000e+000
      vertex  4.000000e+000 -5.773503e+000 -1.332268e-015
      vertex  0.000000e+000 -4.331372e+000 -2.497843e+000
    endloop
  endfacet
  facet normal  4.254027e-005 -8.660549e-001 -4.999490e-001
    outer loop
      vertex  4.000000e+000 -2.886751e+000 -5.000000e+000
      vertex  0.000000e+000 -4.331372e+000 -2.497843e+000
      vertex  0.000000e+000 -4.330127e+000 -2.500000e+000
    endloop
  endfacet
  facet normal -2.551511e-005 -8.660077e-001 -5.000307e-001
    outer loop
      vertex  4.000000e+000 -2.886751e+000 -5.000000e+000
      vertex  0.000000e+000 -4.330127e+000 -2.500000e+000
      vertex  3.937822e-016 -4.328888e+000 -2.502146e+000
    endloop
  endfacet
  facet normal -1.518761e-007 -8.660253e-001 -5.000002e-001
    outer loop
      vertex  4.000000e+000 -2.886751e+000 -5.000000e+000
      vertex  3.937822e-016 -4.328888e+000 -2.502146e+000
      vertex  2.897243e-002 -3.975044e+000 -3.115022e+000
    endloop
  endfacet
  facet normal  0.000000e+000 -8.660254e-001 -4.999999e-001
    outer loop
      vertex  4.000000e+000 -2.886751e+000 -5.000000e+000
      vertex  2.897243e-002 -3.975044e+000 -3.115022e+000
      vertex  4.465820e-001 -2.886751e+000 -5.000000e+000
    endloop
  endfacet
  facet normal  1.874629e-016 -8.660254e-001 -5.000001e-001
    outer loop
      vertex  4.000000e+000 -5.773503e+000 -1.332268e-015
      vertex  4.465820e-001 -5.773503e+000 -2.664535e-015
      vertex  0.000000e+000 -4.331372e+000 -2.497843e+000
    endloop
  endfacet
  facet normal -1.581080e-006 -8.660255e-001 -4.999998e-001
    outer loop
      vertex  0.000000e+000 -4.331372e+000 -2.497843e+000
      vertex  4.465820e-001 -5.773503e+000 -2.664535e-015
      vertex  1.298535e-001 -5.088367e+000 -1.186689e+000
    endloop
  endfacet
  facet normal  0.000000e+000  -0.000000e+000 -1.000000e+000
    outer loop
      vertex  3.885781e-016  2.479962e-003 -5.000000e+000
      vertex  2.897243e-002  7.101658e-001 -5.000000e+000
      vertex  4.026843e-001  2.731513e+000 -5.000000e+000
    endloop
  endfacet
  facet normal  0.000000e+000  -0.000000e+000 -9.999999e-001
    outer loop
      vertex  3.885781e-016  2.479962e-003 -5.000000e+000
      vertex  4.026843e-001  2.731513e+000 -5.000000e+000
      vertex  4.465820e-001  2.886751e+000 -5.000000e+000
    endloop
  endfacet
  facet normal  0.000000e+000  -0.000000e+000 -1.000000e+000
    outer loop
      vertex  3.885781e-016  2.479962e-003 -5.000000e+000
      vertex  4.465820e-001  2.886751e+000 -5.000000e+000
      vertex  4.000000e+000  2.886751e+000 -5.000000e+000
    endloop
  endfacet
  facet normal  0.000000e+000  0.000000e+000 -1.000000e+000
    outer loop
      vertex  4.000000e+000  2.886751e+000 -5.000000e+000
      vertex  4.000000e+000 -2.886751e+000 -5.000000e+000
      vertex  0.000000e+000 -2.492940e-003 -5.000000e+000
    endloop
  endfacet
  facet normal  0.000000e+000  0.000000e+000 -1.000000e+000
    outer loop
      vertex  4.000000e+000  2.886751e+000 -5.000000e+000
      vertex  0.000000e+000 -2.492940e-003 -5.000000e+000
      vertex  0.000000e+000 -6.178508e-013 -5.000000e+000
    endloop
  endfacet
  facet normal  0.000000e+000  0.000000e+000 -1.000000e+000
    outer loop
      vertex  4.000000e+000  2.886751e+000 -5.000000e+000
      vertex  0.000000e+000 -6.178508e-013 -5.000000e+000
      vertex  3.885781e-016  2.479962e-003 -5.000000e+000
    endloop
  endfacet
  facet normal  0.000000e+000  0.000000e+000 -1.000000e+000
    outer loop
      vertex  4.000000e+000 -2.886751e+000 -5.000000e+000
      vertex  4.465820e-001 -2.886751e+000 -5.000000e+000
      vertex  0.000000e+000 -2.492940e-003 -5.000000e+000
    endloop
  endfacet
  facet normal  0.000000e+000  0.000000e+000 -1.000000e+000
    outer loop
      vertex  0.000000e+000 -2.492940e-003 -5.000000e+000
      vertex  4.465820e-001 -2.886751e+000 -5.000000e+000
      vertex  1.298535e-001 -1.516481e+000 -5.000000e+000
    endloop
  endfacet
  facet normal  2.064765e-008  8.660254e-001 -5.000000e-001
    outer loop
      vertex  4.000000e+000  5.773503e+000  0.000000e+000
      vertex  4.000000e+000  2.886751e+000 -5.000000e+000
      vertex  0.000000e+000  4.328879e+000 -2.502161e+000
    endloop
  endfacet
  facet normal  1.912538e-005  8.660122e-001 -5.000229e-001
    outer loop
      vertex  4.000000e+000  5.773503e+000  0.000000e+000
      vertex  0.000000e+000  4.328879e+000 -2.502161e+000
      vertex  0.000000e+000  4.330127e+000 -2.500000e+000
    endloop
  endfacet
  facet normal -3.268395e-005  8.660481e-001 -4.999608e-001
    outer loop
      vertex  4.000000e+000  5.773503e+000  0.000000e+000
      vertex  0.000000e+000  4.330127e+000 -2.500000e+000
      vertex  3.885781e-016  4.331368e+000 -2.497850e+000
    endloop
  endfacet
  facet normal -2.386644e-007  8.660255e-001 -4.999997e-001
    outer loop
      vertex  4.000000e+000  5.773503e+000  0.000000e+000
      vertex  3.885781e-016  4.331368e+000 -2.497850e+000
      vertex  2.897243e-002  4.685210e+000 -1.884978e+000
    endloop
  endfacet
  facet normal  0.000000e+000  8.660253e-001 -5.000001e-001
    outer loop
      vertex  4.000000e+000  5.773503e+000  0.000000e+000
      vertex  2.897243e-002  4.685210e+000 -1.884978e+000
      vertex  4.465820e-001  5.773503e+000  1.776357e-015
    endloop
  endfacet
  facet normal  0.000000e+000  8.660254e-001 -5.000000e-001
    outer loop
      vertex  4.000000e+000  2.886751e+000 -5.000000e+000
      vertex  4.465820e-001  2.886751e+000 -5.000000e+000
      vertex  0.000000e+000  4.328879e+000 -2.502161e+000
    endloop
  endfacet
  facet normal -7.905443e-007  8.660253e-001 -5.000001e-001
    outer loop
      vertex  0.000000e+000  4.328879e+000 -2.502161e+000
      vertex  4.465820e-001  2.886751e+000 -5.000000e+000
      vertex  1.298535e-001  3.571887e+000 -3.813311e+000
    endloop
  endfacet
  facet normal  0.000000e+000  8.660254e-001  5.000000e-001
    outer loop
      vertex  4.000000e+000  2.886751e+000  5.000000e+000
      vertex  4.000000e+000  5.773503e+000  0.000000e+000
      vertex  0.000000e+000  4.331375e+000  2.497839e+000
    endloop
  endfacet
  facet normal  3.140181e-005  8.660471e-001  4.999623e-001
    outer loop
      vertex  4.000000e+000  2.886751e+000  5.000000e+000
      vertex  0.000000e+000  4.331375e+000  2.497839e+000
      vertex  0.000000e+000  4.330127e+000  2.500000e+000
    endloop
  endfacet
  facet normal -3.658210e-005  8.660000e-001  5.000439e-001
    outer loop
      vertex  4.000000e+000  2.886751e+000  5.000000e+000
      vertex  0.000000e+000  4.330127e+000  2.500000e+000
      vertex  3.885781e-016  4.328886e+000  2.502150e+000
    endloop
  endfacet
  facet normal -1.301804e-007  8.660253e-001  5.000002e-001
    outer loop
      vertex  4.000000e+000  2.886751e+000  5.000000e+000
      vertex  3.885781e-016  4.328886e+000  2.502150e+000
      vertex  2.897243e-002  3.975044e+000  3.115022e+000
    endloop
  endfacet
  facet normal  0.000000e+000  8.660254e-001  4.999999e-001
    outer loop
      vertex  4.000000e+000  2.886751e+000  5.000000e+000
      vertex  2.897243e-002  3.975044e+000  3.115022e+000
      vertex  4.465820e-001  2.886751e+000  5.000000e+000
    endloop
  endfacet
  facet normal  2.499504e-016  8.660254e-001  5.000000e-001
    outer loop
      vertex  4.000000e+000  5.773503e+000  0.000000e+000
      vertex  4.465820e-001  5.773503e+000  1.776357e-015
      vertex  0.000000e+000  4.331375e+000  2.497839e+000
    endloop
  endfacet
  facet normal -1.581088e-006  8.660255e-001  4.999999e-001
    outer loop
      vertex  0.000000e+000  4.331375e+000  2.497839e+000
      vertex  4.465820e-001  5.773503e+000  1.776357e-015
      vertex  1.298535e-001  5.088367e+000  1.186689e+000
    endloop
  endfacet
endsolid CATIA STL
